# xmcd
#
# Track frame offsets:
#	150
#	17075
#	37715
#	51944
#	56402
#	70895
#	84845
#
# Disc length: 1557 seconds
#
# Revision: 1
# Processed by: cddbd v1.5.2PL0 Copyright (c) Steve Scherf et al.
# Submitted via: audiograbber 1.83.01
#
DISCID=4b061307
DTITLE=Bury My Sins - Rats
DYEAR=2010
DGENRE=Metal
TTITLE0=Rats
TTITLE1=Oblivion the end
TTITLE2=Die away from you
TTITLE3=Jeleni
TTITLE4=Trapped meaningless
TTITLE5=The killer in me
TTITLE6=Nowy Sacz
EXTD=
EXTT0=
EXTT1=
EXTT2=
EXTT3=
EXTT4=
EXTT5=
EXTT6=
PLAYORDER=
